<svg width="176" height="187" viewBox="0 0 176 187" fill="none" xmlns="http://www.w3.org/2000/svg">
<path opacity="0.3" d="M0.476041 145.718C11.6362 162.288 27.9619 174.848 47.0563 181.556C66.1506 188.263 87.0075 188.763 106.565 182.982C126.122 177.202 143.349 165.446 155.716 149.44C168.083 133.434 174.939 114.022 175.278 94.053C175.616 74.0844 169.418 54.6118 157.595 38.4942C145.772 22.3766 128.946 10.4632 109.588 4.50331C90.2298 -1.45662 69.3592 -1.14913 50.0406 5.38066C30.7221 11.9104 13.9733 24.3185 2.25363 40.783L31.995 60.9682C39.237 50.7943 49.5864 43.1271 61.5239 39.0921C73.4614 35.0572 86.3579 34.8672 98.3198 38.55C110.282 42.2328 120.679 49.5944 127.985 59.5539C135.291 69.5134 139.12 81.546 138.911 93.8851C138.702 106.224 134.466 118.22 126.823 128.11C119.181 138.001 108.536 145.265 96.4516 148.837C84.3667 152.409 71.4787 152.1 59.6798 147.955C47.8809 143.811 37.7928 136.049 30.8966 125.81L0.476041 145.718Z" fill="#FEFFFF"/>
</svg>
