<svg width="66" height="66" viewBox="0 0 66 66" fill="none" xmlns="http://www.w3.org/2000/svg">
<g style="mix-blend-mode:multiply" opacity="0.1">
<circle cx="33" cy="33" r="33" fill="#FACA10"/>
</g>
<g filter="url(#filter0_i_0_190)">
<circle cx="33" cy="33" r="28" fill="#FACA10"/>
</g>
<g filter="url(#filter1_d_0_190)">
<path d="M43.466 36.0866C38.8707 36.2658 34.5201 37.4607 30.6437 39.4411L25.6592 42.3193C24.341 43.0794 22.6575 42.6232 21.901 41.3118L19.3678 36.9254C18.6096 35.6116 19.0615 33.9253 20.3753 33.1672L24.505 30.7825C24.7441 30.6445 25.0499 30.7263 25.1881 30.9655L28.433 36.586C28.5735 36.8293 28.8877 36.9101 29.1288 36.7615C29.362 36.6177 29.4257 36.3053 29.2887 36.0681L26.0203 30.407C25.8905 30.1821 25.9542 29.895 26.1676 29.7471C29.5769 27.3834 32.4613 24.3728 34.6763 20.8618C35.5155 19.5306 37.4709 19.5662 38.2596 20.9318L45.1966 32.9484C45.985 34.3111 45.0411 36.0254 43.466 36.0866ZM44.3561 27.7175C44.6129 26.2476 43.7514 24.7733 42.3589 24.2687C41.9212 24.11 41.5242 24.5863 41.7569 24.9895C42.3109 25.9494 42.8669 26.9125 43.4291 27.8859C43.664 28.2925 44.2753 28.1801 44.3561 27.7175ZM32.8138 45.41L30.441 41.291C30.3031 41.0516 29.9969 40.9695 29.7576 41.1076C28.4716 41.8495 28.423 41.8784 26.7076 42.8685C26.4684 43.0066 26.3862 43.3126 26.5243 43.5518L28.9012 47.6682C29.2059 48.1953 29.7538 48.482 30.3118 48.482C30.8531 48.482 31.0601 48.2989 32.2188 47.6301C32.995 47.1819 33.2619 46.1857 32.8138 45.41ZM48.007 23.9156C48.2461 23.7776 48.3281 23.4718 48.19 23.2326C48.052 22.9936 47.7463 22.9115 47.507 23.0496L46.2132 23.7966C45.7705 24.0522 45.9557 24.7297 46.4637 24.7297C46.6416 24.7297 46.6059 24.7245 48.007 23.9156ZM43.4092 21.3246L43.7247 20.1473C43.7962 19.8806 43.6379 19.6065 43.3712 19.535C43.1043 19.4636 42.8303 19.6218 42.7588 19.8885L42.4432 21.0658C42.3583 21.3828 42.5972 21.6954 42.9265 21.6954C43.1473 21.6953 43.3493 21.548 43.4092 21.3246ZM48.9829 29.2547C49.0544 28.9879 48.896 28.7137 48.6293 28.6423L47.452 28.3268C47.1853 28.2555 46.9111 28.4137 46.8396 28.6804C46.7681 28.9471 46.9264 29.2213 47.1931 29.2928C48.4807 29.6378 48.41 29.6254 48.5002 29.6254C48.7209 29.6254 48.923 29.4781 48.9829 29.2547Z" fill="#E8BA03"/>
<path d="M42.466 35.0866C37.8707 35.2658 33.5201 36.4607 29.6437 38.4411L24.6592 41.3193C23.341 42.0794 21.6575 41.6232 20.901 40.3118L18.3678 35.9254C17.6096 34.6116 18.0615 32.9253 19.3753 32.1672L23.505 29.7825C23.7441 29.6445 24.0499 29.7263 24.1881 29.9655L27.433 35.586C27.5735 35.8293 27.8877 35.9101 28.1288 35.7615C28.362 35.6177 28.4257 35.3053 28.2887 35.0681L25.0203 29.407C24.8905 29.1821 24.9542 28.895 25.1676 28.7471C28.5769 26.3834 31.4613 23.3728 33.6763 19.8618C34.5155 18.5306 36.4709 18.5662 37.2596 19.9318L44.1966 31.9484C44.985 33.3111 44.0411 35.0254 42.466 35.0866ZM43.3561 26.7175C43.6129 25.2476 42.7514 23.7733 41.3589 23.2687C40.9212 23.11 40.5242 23.5863 40.7569 23.9895C41.3109 24.9494 41.8669 25.9125 42.4291 26.8859C42.664 27.2925 43.2753 27.1801 43.3561 26.7175ZM31.8138 44.41L29.441 40.291C29.3031 40.0516 28.9969 39.9695 28.7576 40.1076C27.4716 40.8495 27.423 40.8784 25.7076 41.8685C25.4684 42.0066 25.3862 42.3126 25.5243 42.5518L27.9012 46.6682C28.2059 47.1953 28.7538 47.482 29.3118 47.482C29.8531 47.482 30.0601 47.2989 31.2188 46.6301C31.995 46.1819 32.2619 45.1857 31.8138 44.41ZM47.007 22.9156C47.2461 22.7776 47.3281 22.4718 47.19 22.2326C47.052 21.9936 46.7463 21.9115 46.507 22.0496L45.2132 22.7966C44.7705 23.0522 44.9557 23.7297 45.4637 23.7297C45.6416 23.7297 45.6059 23.7245 47.007 22.9156ZM42.4092 20.3246L42.7247 19.1473C42.7962 18.8806 42.6379 18.6065 42.3712 18.535C42.1043 18.4636 41.8303 18.6218 41.7588 18.8885L41.4432 20.0658C41.3583 20.3828 41.5972 20.6954 41.9265 20.6954C42.1473 20.6953 42.3493 20.548 42.4092 20.3246ZM47.9829 28.2547C48.0544 27.9879 47.896 27.7137 47.6293 27.6423L46.452 27.3268C46.1853 27.2555 45.9111 27.4137 45.8396 27.6804C45.7681 27.9471 45.9264 28.2213 46.1931 28.2928C47.4807 28.6378 47.41 28.6254 47.5002 28.6254C47.7209 28.6254 47.923 28.4781 47.9829 28.2547Z" fill="white"/>
</g>
<defs>
<filter id="filter0_i_0_190" x="5" y="5" width="56" height="56" filterUnits="userSpaceOnUse" color-interpolation-filters="sRGB">
<feFlood flood-opacity="0" result="BackgroundImageFix"/>
<feBlend mode="normal" in="SourceGraphic" in2="BackgroundImageFix" result="shape"/>
<feColorMatrix in="SourceAlpha" type="matrix" values="0 0 0 0 0 0 0 0 0 0 0 0 0 0 0 0 0 0 127 0" result="hardAlpha"/>
<feOffset/>
<feGaussianBlur stdDeviation="0.5"/>
<feComposite in2="hardAlpha" operator="arithmetic" k2="-1" k3="1"/>
<feColorMatrix type="matrix" values="0 0 0 0 0 0 0 0 0 0 0 0 0 0 0 0 0 0 0.2 0"/>
<feBlend mode="normal" in2="shape" result="effect1_innerShadow_0_190"/>
</filter>
<filter id="filter1_d_0_190" x="14" y="18.5178" width="39" height="37.9642" filterUnits="userSpaceOnUse" color-interpolation-filters="sRGB">
<feFlood flood-opacity="0" result="BackgroundImageFix"/>
<feColorMatrix in="SourceAlpha" type="matrix" values="0 0 0 0 0 0 0 0 0 0 0 0 0 0 0 0 0 0 127 0" result="hardAlpha"/>
<feOffset dy="4"/>
<feGaussianBlur stdDeviation="2"/>
<feColorMatrix type="matrix" values="0 0 0 0 0 0 0 0 0 0 0 0 0 0 0 0 0 0 0.25 0"/>
<feBlend mode="normal" in2="BackgroundImageFix" result="effect1_dropShadow_0_190"/>
<feBlend mode="normal" in="SourceGraphic" in2="effect1_dropShadow_0_190" result="shape"/>
</filter>
</defs>
</svg>
