<svg width="58" height="46" viewBox="0 0 58 46" fill="none" xmlns="http://www.w3.org/2000/svg">
<g filter="url(#filter0_d_151_8)">
<path d="M8.2 19.9147H13.0637C17.0039 19.9147 20.0329 23.569 17.8441 26.8453C16.4375 28.9507 14.5833 30.7548 12.4 32.1423L10.4065 33.4097C9.44287 34.0223 9.18191 35.3133 9.83194 36.252C10.4457 37.1384 11.6491 37.3833 12.5604 36.8071L14.71 35.4481C17.8741 33.4485 20.4688 30.7392 22.2638 27.5605C24.0589 24.3818 24.9987 20.832 25 17.2262V3.98294C25 2.92659 24.5575 1.91352 23.7698 1.16658C22.9822 0.419628 21.9139 0 20.8 0H8.2C7.08609 0 6.01781 0.419628 5.23015 1.16658C4.4425 1.91352 4 2.92659 4 3.98294V15.9317C4 16.9881 4.4425 18.0012 5.23015 18.7481C6.01781 19.495 7.08609 19.9147 8.2 19.9147Z" fill="white"/>
</g>
<g filter="url(#filter1_d_151_8)">
<path d="M37.2 19.9147H42.0637C46.0039 19.9147 49.0329 23.569 46.8441 26.8453C45.4375 28.9507 43.5833 30.7548 41.4 32.1423L39.4169 33.403C38.4489 34.0185 38.1893 35.3168 38.8464 36.257C39.4641 37.141 40.6684 37.3818 41.5785 36.8032L43.71 35.4481C46.8741 33.4485 49.4688 30.7392 51.2638 27.5605C53.0589 24.3818 53.9987 20.832 54 17.2262V3.98294C54 2.92659 53.5575 1.91352 52.7698 1.16658C51.9822 0.419628 50.9139 0 49.8 0H37.2C36.0861 0 35.0178 0.419628 34.2302 1.16658C33.4425 1.91352 33 2.92659 33 3.98294V15.9317C33 16.9881 33.4425 18.0012 34.2302 18.7481C35.0178 19.495 36.0861 19.9147 37.2 19.9147Z" fill="white"/>
</g>
<defs>
<filter id="filter0_d_151_8" x="0" y="0" width="29" height="45.1187" filterUnits="userSpaceOnUse" color-interpolation-filters="sRGB">
<feFlood flood-opacity="0" result="BackgroundImageFix"/>
<feColorMatrix in="SourceAlpha" type="matrix" values="0 0 0 0 0 0 0 0 0 0 0 0 0 0 0 0 0 0 127 0" result="hardAlpha"/>
<feOffset dy="4"/>
<feGaussianBlur stdDeviation="2"/>
<feColorMatrix type="matrix" values="0 0 0 0 0 0 0 0 0 0 0 0 0 0 0 0 0 0 0.2 0"/>
<feBlend mode="normal" in2="BackgroundImageFix" result="effect1_dropShadow_151_8"/>
<feBlend mode="normal" in="SourceGraphic" in2="effect1_dropShadow_151_8" result="shape"/>
</filter>
<filter id="filter1_d_151_8" x="29" y="0" width="29" height="45.1179" filterUnits="userSpaceOnUse" color-interpolation-filters="sRGB">
<feFlood flood-opacity="0" result="BackgroundImageFix"/>
<feColorMatrix in="SourceAlpha" type="matrix" values="0 0 0 0 0 0 0 0 0 0 0 0 0 0 0 0 0 0 127 0" result="hardAlpha"/>
<feOffset dy="4"/>
<feGaussianBlur stdDeviation="2"/>
<feColorMatrix type="matrix" values="0 0 0 0 0 0 0 0 0 0 0 0 0 0 0 0 0 0 0.2 0"/>
<feBlend mode="normal" in2="BackgroundImageFix" result="effect1_dropShadow_151_8"/>
<feBlend mode="normal" in="SourceGraphic" in2="effect1_dropShadow_151_8" result="shape"/>
</filter>
</defs>
</svg>
