<svg width="14" height="14" viewBox="0 0 14 14" fill="none" xmlns="http://www.w3.org/2000/svg">
<path d="M7 13.6741C5.61553 13.6741 4.26215 13.2985 3.11101 12.5949C1.95987 11.8912 1.06266 10.8911 0.532846 9.721C0.00303298 8.55087 -0.13559 7.2633 0.134506 6.0211C0.404603 4.77891 1.07129 3.63788 2.05026 2.7423C3.02922 1.84673 4.2765 1.23684 5.63437 0.989747C6.99224 0.742659 8.3997 0.869474 9.67879 1.35415C10.9579 1.83884 12.0511 2.65961 12.8203 3.7127C13.5895 4.76578 14 6.00387 14 7.2704C14 8.96877 13.2625 10.5976 11.9497 11.7985C10.637 12.9994 8.85652 13.6741 7 13.6741ZM7 1.78152C5.81331 1.78152 4.65328 2.10343 3.66658 2.70656C2.67989 3.30969 1.91085 4.16694 1.45673 5.1699C1.0026 6.17286 0.88378 7.27649 1.11529 8.34123C1.3468 9.40597 1.91825 10.384 2.75736 11.1516C3.59648 11.9193 4.66557 12.442 5.82946 12.6538C6.99335 12.8656 8.19975 12.7569 9.2961 12.3415C10.3925 11.926 11.3295 11.2225 11.9888 10.3199C12.6481 9.41722 13 8.356 13 7.2704C13 5.81466 12.3679 4.41854 11.2426 3.38917C10.1174 2.35981 8.5913 1.78152 7 1.78152Z" fill="#B0B0B0"/>
<path d="M9.295 10.0148L6.5 7.45789V3.15369H7.5V7.07824L10 9.36985L9.295 10.0148Z" fill="#B0B0B0"/>
</svg>
